<svg width="45" height="41" viewBox="0 0 45 41" fill="none" xmlns="http://www.w3.org/2000/svg">
  <path d="M26.8138 0.00512695C30.6121 0.258246 33.8193 1.32754 36.4301 3.21818C39.0408 5.10882 41.1231 7.65551 42.6718 10.8686C44.2257 14.0816 45 17.2998 45 20.5232C45 23.7466 44.2257 26.9648 42.6718 30.1779C41.1179 33.391 39.0408 35.9376 36.4301 37.8283C33.8193 39.7189 30.6174 40.7727 26.8138 41V37.8696C29.6756 37.5907 32.1451 36.635 34.2117 34.9975C36.2783 33.36 37.9055 31.2627 39.0879 28.716C40.2703 26.1642 40.8668 23.4367 40.8668 20.5284C40.8668 17.6201 40.2756 14.8771 39.0879 12.3305C37.9055 9.78894 36.2783 7.69167 34.2117 6.04898C32.1451 4.40629 29.6756 3.45064 26.8138 3.18719V0.00512695Z" fill="white" />
  <path d="M18.1862 40.9949C14.3826 40.7676 11.1807 39.7138 8.5804 37.8231C5.97489 35.9325 3.8978 33.3858 2.33868 30.1728C0.779561 26.9597 0 23.7467 0 20.5181C0 17.2895 0.779561 14.0765 2.33868 10.8634C3.8978 7.65038 5.98012 5.1037 8.5804 3.21306C11.1807 1.32242 14.3826 0.253119 18.1862 0V3.17173C15.3244 3.43518 12.8549 4.39083 10.7883 6.03352C8.72166 7.67621 7.09975 9.77348 5.92257 12.315C4.74538 14.8565 4.15417 17.5892 4.15417 20.5129C4.15417 23.4367 4.74538 26.1487 5.92257 28.7005C7.09975 31.2524 8.72166 33.3445 10.7883 34.982C12.8549 36.6195 15.3191 37.5804 18.1862 37.8541V40.9846V40.9949Z" fill="white" />
</svg>